<?xml version="1.0" encoding="utf-8" ?><svg xmlns="http://www.w3.org/2000/svg" xmlns:xlink="http://www.w3.org/1999/xlink" width="1376" height="768" viewBox="0 0 1376 768"><path fill="#F7F7F7" d="M0 0L1376 0L1376 768L0 768L0 0Z"/><path fill="#F4F3F3" d="M339.823 118.814C364.777 118.174 390.919 118.758 415.979 118.711L593.152 118.676L657.54 118.627C665.507 118.613 681.654 119.048 689.046 118.45C700.698 118.85 712.355 118.59 724.008 118.481C750.991 118.228 777.975 118.847 804.957 118.586C817.945 118.406 830.935 118.373 843.924 118.487C849.106 118.517 857.742 118.322 862.702 118.771L864.038 118.858C914.5 118.224 965.057 119.18 1015.53 118.633C1022.39 118.558 1031.54 119.212 1038.23 118.426C1044.49 119.034 1053.34 118.677 1059.8 118.63L1089.65 118.641L1212.72 118.691L1212.58 650.314L1101.33 650.519C1082.42 650.522 1057.31 651.235 1038.82 650.34L1037.81 650.357C981.172 651.361 922.779 650.364 865.989 650.461C807.503 650.56 747.981 651.148 689.601 650.345L688.443 650.408C674.532 650.629 660.49 650.709 646.574 650.587C544.325 649.691 441.722 651.774 339.513 650.349L338.346 650.442L163.764 650.454L163.813 118.455L303.577 118.651C315.082 118.724 327.027 118.32 338.345 118.519L339.823 118.814Z"/><path fill="#F4F3F3" d="M864.038 118.858C914.5 118.224 965.057 119.18 1015.53 118.633C1022.39 118.558 1031.54 119.212 1038.23 118.426C1044.49 119.034 1053.34 118.677 1059.8 118.63L1089.65 118.641L1212.72 118.691L1212.58 650.314L1101.33 650.519C1082.42 650.522 1057.31 651.235 1038.82 650.34L1037.81 650.357C981.172 651.361 922.779 650.364 865.989 650.461C807.503 650.56 747.981 651.148 689.601 650.345C690.168 643.154 689.781 629.819 689.778 622.202L689.74 568.065C689.696 520.698 690.471 470.983 689.447 423.898C691.217 423.958 691.939 424.2 693.258 423.206C694.843 410.658 694.226 375.196 689.751 363.989C689.388 363.195 688.772 362.386 688.269 361.646C687.745 356.961 688.092 341.411 688.088 335.903L688.066 281.929C688.056 228.986 688.009 175.965 688.156 123.018C688.162 120.957 688.019 120.188 689.046 118.45C700.698 118.85 712.355 118.59 724.008 118.481C750.991 118.228 777.975 118.847 804.957 118.586C817.945 118.406 830.935 118.373 843.924 118.487C849.106 118.517 857.742 118.322 862.702 118.771L864.038 118.858Z"/><path fill="#F4F3F3" d="M1038.23 118.426C1044.49 119.034 1053.34 118.677 1059.8 118.63L1089.65 118.641L1212.72 118.691L1212.58 650.314L1101.33 650.519C1082.42 650.522 1057.31 651.235 1038.82 650.34L1038.96 468.206L1039.29 401.552C1039.37 394.168 1038.7 386.211 1039.19 378.96L1039.61 379.129C1040.06 382.157 1040.5 382.106 1041.52 384.754C1041.41 397.767 1041.41 410.78 1041.52 423.793C1044.98 423.63 1057.25 423.329 1060.46 423.818C1060.36 408.927 1060.8 393.693 1060.42 378.838C1060.17 369.061 1057.12 363.603 1050.22 357.465L1048.22 356.516C1044.33 354.969 1043 354.793 1038.8 354.162L1038.88 183.627L1039.01 142.794C1039.02 137.391 1039.35 123.059 1038.23 118.426Z"/><path fill="#F4F3F3" d="M1050.05 287.493L1201.02 287.469C1200.19 336.375 1201.39 385.558 1200.97 434.49C1200.9 442.538 1200.9 450.754 1201.26 458.783L1050.02 458.772C1050.14 447.23 1050.05 435.687 1049.76 424.148C1052.34 424.138 1058.19 424.274 1060.46 423.818C1060.36 408.927 1060.8 393.693 1060.42 378.838C1060.17 369.061 1057.12 363.603 1050.22 357.465C1050.04 334.141 1049.99 310.817 1050.05 287.493Z"/><path d="M1121.43 331.073L1140.68 331.191L1140.69 423.632L1122.58 423.637L1122.51 412.492C1114.61 423.872 1107.87 426.168 1094.25 423.74C1068.31 415.747 1066.03 376.417 1084.81 360.144C1096.65 349.883 1111.57 352.23 1121.46 364.641C1121.38 353.452 1121.37 342.262 1121.43 331.073Z"/><path fill="#F4F3F3" d="M1103.16 369.654C1104.97 369.536 1108.97 369.169 1110.53 369.83C1126.49 376.577 1125.34 401.117 1110.79 408.835C1088.47 411.6 1085.85 378.096 1103.16 369.654Z"/><path fill="#A0A0A2" d="M1152.41 420.285C1157.04 419.985 1180.64 419.441 1184.05 420.48L1184.28 421.933C1179.58 421.957 1154.69 422.413 1152.07 421.323L1152.41 420.285Z"/><path fill="#A0A0A2" d="M1151.8 435.754C1160.85 435.247 1171.2 435.522 1180.33 435.536C1183.08 435.54 1183.42 435.622 1184.86 437.199C1180.88 437.588 1155.12 437.763 1152.1 436.956L1151.8 435.754Z"/><path fill="#A0A0A2" d="M1153.32 310.77C1158.83 310.699 1179.67 310.118 1183.91 310.989L1184.37 311.938L1183.22 312.491C1178.84 312.492 1153.48 313.199 1151.96 311.332L1153.32 310.77Z"/><path fill="#A0A0A2" d="M1150.97 443.795C1151.31 443.74 1152.56 443.532 1152.85 443.558C1158.52 444.043 1181.41 441.929 1184.81 444.876C1184.45 444.939 1183.15 445.177 1182.84 445.148C1176.85 444.603 1154.81 447.056 1150.97 443.795Z"/><path fill="#A0A0A2" d="M1151.69 318.805C1155.51 318.271 1180.94 318.092 1184.04 318.88L1184.25 320.042C1179.21 320.22 1153.93 321.185 1151.69 318.805Z"/><path fill="#A0A0A2" d="M1151.05 428.361C1154.84 427.687 1182.02 427.23 1185.07 429.021C1181.38 429.923 1153.66 430.348 1151.05 428.361Z"/><path fill="#A0A0A2" d="M1150.97 326.884C1154.45 326.198 1182.17 325.725 1185.1 327.567C1181.12 328.431 1153.54 328.767 1150.97 326.884Z"/><path fill="#A0A0A2" d="M1151.13 412.906C1154.86 412.233 1182.08 411.8 1184.97 413.569C1180.14 414.208 1154.4 415.156 1151.13 412.906Z"/><path fill="#A0A0A2" d="M1151 303.371C1154.64 302.681 1182.05 302.34 1185.12 304.055C1181.28 304.865 1153.57 305.337 1151 303.371Z"/><path fill="#A0A0A2" d="M1048.23 285.892C1093.02 286.897 1138.24 285.479 1183.07 286.021C1189.39 286.097 1196.25 286.178 1202.55 285.946L1202.39 460.202C1151.97 460.259 1098.73 459.422 1048.49 460.335C1048.54 454.169 1049.12 430.181 1048.26 425.002C1046.58 423.829 1043.72 423.946 1041.52 423.793C1044.98 423.63 1057.25 423.329 1060.46 423.818C1058.19 424.274 1052.34 424.138 1049.76 424.148C1050.05 435.687 1050.14 447.23 1050.02 458.772L1201.26 458.783C1200.9 450.754 1200.9 442.538 1200.97 434.49C1201.39 385.558 1200.19 336.375 1201.02 287.469L1050.05 287.493C1049.99 310.817 1050.04 334.141 1050.22 357.465L1048.22 356.516C1049.65 351.217 1048.77 295.24 1048.23 285.892Z"/><path fill="#A0A0A2" d="M1048.62 469.779C1063.57 470.515 1084.03 469.844 1099.34 469.848L1202.52 469.69C1202.36 526.155 1201.78 584.613 1202.55 640.985C1151.59 640.782 1099.38 640.477 1048.49 641.101C1049.5 585.037 1048.61 526.062 1048.62 469.779Z"/><path fill="#F7F7F7" d="M1050.11 471.356L1149.41 471.373C1163.52 471.384 1187.88 472.073 1201.17 470.99C1201.12 477.823 1201.02 484.656 1200.85 491.488C1201.32 495.253 1201.66 502.501 1200.87 506.188L1200.85 506.515C1201.54 510.378 1201.44 517.875 1200.85 521.762C1201.01 527.332 1201.29 539.141 1200.85 544.729C1201.43 548.76 1201.56 555.869 1200.85 559.901C1201.1 570.08 1201.55 591.349 1200.85 601.17C1201.43 605.301 1201.64 619.744 1200.85 623.893C1201.18 627.604 1200.95 635.361 1200.96 639.379C1185.47 638.859 1167.34 639.28 1151.68 639.255L1050.13 639.325L1050.11 471.356Z"/><path fill="#C3C2C4" d="M1200.85 601.17C1201.43 605.301 1201.64 619.744 1200.85 623.893C1200.37 618.465 1200.57 606.578 1200.85 601.17Z"/><path fill="#C3C2C4" d="M1200.85 506.515C1201.54 510.378 1201.44 517.875 1200.85 521.762C1200.64 516.21 1200.48 512.038 1200.85 506.515Z"/><path fill="#C3C2C4" d="M1200.85 491.488C1201.32 495.253 1201.66 502.501 1200.87 506.188C1200.43 501.538 1200.65 496.144 1200.85 491.488Z"/><path fill="#C3C2C4" d="M1200.85 544.729C1201.43 548.76 1201.56 555.869 1200.85 559.901C1200.59 554.259 1200.59 550.371 1200.85 544.729Z"/><path fill="#C3C2C4" d="M1060.43 551.892C1063.02 550.751 1066.04 551.919 1067.2 554.505C1068.35 557.092 1067.19 560.123 1064.61 561.285C1062.01 562.455 1058.96 561.291 1057.8 558.689C1056.65 556.088 1057.82 553.04 1060.43 551.892Z"/><path fill="#A0A0A2" d="M1151.02 503.591C1152.24 503.433 1153.1 503.359 1154.63 503.362C1164.15 503.376 1174.32 502.577 1183.75 503.576C1184.33 504.135 1184.82 504.598 1185.2 504.964C1180.74 505.913 1153.68 506.258 1151.02 503.591Z"/><path fill="#A0A0A2" d="M1151.04 596.282C1155.05 595.825 1180.62 595.67 1183.86 596.465L1184.18 597.615C1179.51 598.082 1156.09 598.231 1151.92 597.557L1151.04 596.282Z"/><path fill="#A0A0A2" d="M1151.27 611.762C1159.99 611.094 1171.18 611.797 1180.07 611.66C1182.97 611.615 1183.34 611.661 1184.87 613.289C1180.76 613.658 1155.1 613.845 1151.8 613.065L1151.27 611.762Z"/><path fill="#A0A0A2" d="M1150.7 604.385C1156.77 603.313 1173.03 604.295 1179.9 603.994C1182.41 603.885 1183.45 604.026 1184.91 605.578C1180.03 606.294 1153.22 606.739 1150.7 604.385Z"/><path fill="#A0A0A2" d="M1152.08 495.523C1156.68 495.476 1181.08 494.905 1184.05 495.962L1184.26 497.262C1179.7 497.303 1154.79 497.845 1151.91 496.744L1152.08 495.523Z"/><path fill="#A0A0A2" d="M1164.49 619.851C1168.25 619.781 1179.9 619.457 1183.15 620.88L1182.85 620.8L1182.7 621.139C1178.77 621.634 1174.27 621.527 1170.27 621.548C1166.23 621.593 1156.14 621.891 1152.51 620.538C1156.37 619.697 1160.53 619.863 1164.49 619.851Z"/><path fill="#A0A0A2" d="M1150.75 511.665C1154.66 510.984 1182.01 510.42 1185.17 512.356C1184.69 512.476 1184.21 512.576 1183.73 512.655C1180.31 513.23 1153.59 513.644 1150.75 511.665Z"/><path fill="#A0A0A2" d="M1150.61 488.154C1154.83 487.497 1182.02 486.96 1185.14 488.831C1181.55 489.601 1153.76 490.17 1150.61 488.154Z"/><path fill="#A0A0A2" d="M1048.56 128.94C1098.73 129.872 1152.25 129.047 1202.58 128.959L1202.4 276.328L1048.44 276.307L1048.56 128.94Z"/><path fill="#F7F7F7" d="M1049.8 130.434L1200.94 130.441L1200.92 275.102C1151.81 273.958 1099.35 274.886 1049.98 274.889C1050.26 226.737 1050.2 178.585 1049.8 130.434Z"/><path fill="#C3C2C4" d="M1059.79 188.943C1061.43 188.113 1063.39 188.246 1064.91 189.29C1066.42 190.334 1067.24 192.122 1067.05 193.951C1066.86 195.78 1065.68 197.358 1063.98 198.065C1061.49 199.103 1058.62 197.982 1057.49 195.526C1056.36 193.071 1057.38 190.162 1059.79 188.943Z"/><path fill="#A0A0A2" d="M1153.61 234.153C1158.74 234.087 1181.54 233.276 1184.6 234.922L1184.5 235.835L1183.22 236.49C1178.16 236.521 1156.26 236.989 1152.5 235.838L1152.16 234.966L1153.61 234.153Z"/><path fill="#A0A0A2" d="M1151.93 242.204C1156.04 241.764 1180.76 241.465 1184.22 242.318L1185.01 243.797C1179.07 243.88 1157.5 244.388 1152.55 243.476L1151.93 242.204Z"/><path fill="#A0A0A2" d="M1151.16 250.305C1157.52 249.11 1173.14 249.961 1180.23 249.716C1182.56 249.636 1183.5 249.838 1184.86 251.281C1179.74 251.991 1154.61 252.681 1151.16 250.305Z"/><path fill="#A0A0A2" d="M1159.43 226.734C1162.8 226.711 1180.93 226.454 1182.47 227.605L1183.5 227.427L1183.32 228.154L1179.9 228.403C1174.93 228.431 1156.32 228.668 1152.36 227.858C1154.59 226.633 1156.86 226.806 1159.43 226.734Z"/><path fill="#A0A0A2" d="M1151.03 258.357C1154.8 257.693 1182.03 256.885 1184.9 258.853C1181.04 259.718 1154.68 260.039 1151.03 258.357Z"/><path fill="#F4F3F3" d="M864.038 118.858C914.5 118.224 965.057 119.18 1015.53 118.633C1022.39 118.558 1031.54 119.212 1038.23 118.426C1039.35 123.059 1039.02 137.391 1039.01 142.794L1038.88 183.627L1038.8 354.162C1043 354.793 1044.33 354.969 1048.22 356.516L1050.22 357.465C1057.12 363.603 1060.17 369.061 1060.42 378.838C1060.8 393.693 1060.36 408.927 1060.46 423.818C1057.25 423.329 1044.98 423.63 1041.52 423.793C1041.41 410.78 1041.41 397.767 1041.52 384.754C1041.79 378.903 1041.07 376.951 1037.48 372.477C1034.22 370.094 1031.52 369.251 1027.53 369.985L1025.25 370.285C1027.29 376.635 1025.95 446.913 1025.9 458.412L875.032 458.389L874.886 423.949C885.02 423.313 900.105 423.731 910.619 423.739C910.567 418.312 910.626 412.796 910.632 407.36L887.736 407.292C882.525 408.001 876.839 406.928 870.965 407.889C870.05 403.054 870.395 387.408 870.411 381.774C870.566 364.857 870.571 347.938 870.429 331.02C867.945 330.877 866.771 330.888 864.369 330.176C863.741 325.165 864.057 312.945 864.066 307.337L864.093 264.647L864.038 118.858Z"/><path fill="#F7F7F7" d="M874.804 287.315C910.161 287.832 945.693 287.284 981.064 287.479C995.749 287.56 1011.32 287.113 1025.92 287.557L1026.09 356.205L1027.38 355.542C1031.43 354.419 1033.87 353.981 1038.01 354.399L1038.8 354.162C1043 354.793 1044.33 354.969 1048.22 356.516L1050.22 357.465C1057.12 363.603 1060.17 369.061 1060.42 378.838C1060.8 393.693 1060.36 408.927 1060.46 423.818C1057.25 423.329 1044.98 423.63 1041.52 423.793C1041.41 410.78 1041.41 397.767 1041.52 384.754C1041.79 378.903 1041.07 376.951 1037.48 372.477C1034.22 370.094 1031.52 369.251 1027.53 369.985L1025.25 370.285C1027.29 376.635 1025.95 446.913 1025.9 458.412L875.032 458.389L874.886 423.949C885.02 423.313 900.105 423.731 910.619 423.739C910.567 418.312 910.626 412.796 910.632 407.36L887.736 407.292C882.525 408.001 876.839 406.928 870.965 407.889L872.233 407.309C874.56 404.044 872.528 388.749 872.696 383.892C872.973 375.864 873.204 367.562 873.404 359.517C874.431 356.522 872.951 349.294 874.141 347.318C875.091 341.083 874.899 329.885 874.895 323.311L874.804 287.315Z"/><path d="M1038.01 354.399L1038.8 354.162C1043 354.793 1044.33 354.969 1048.22 356.516L1050.22 357.465C1057.12 363.603 1060.17 369.061 1060.42 378.838C1060.8 393.693 1060.36 408.927 1060.46 423.818C1057.25 423.329 1044.98 423.63 1041.52 423.793C1041.41 410.78 1041.41 397.767 1041.52 384.754C1041.79 378.903 1041.07 376.951 1037.48 372.477C1034.22 370.094 1031.52 369.251 1027.53 369.985L1025.25 370.285C1016.21 374.31 1016.29 382.051 1016.35 390.91C1016.42 401.837 1016.47 412.773 1016.51 423.701L997.271 423.81L997.334 355.201L1015.25 355.118L1015.37 366.677C1019.09 361.239 1020.19 359.524 1026.09 356.205L1027.38 355.542C1031.43 354.419 1033.87 353.981 1038.01 354.399Z"/><path fill="#A0A0A2" d="M873.404 359.517L874.353 360.072C875.478 369.391 874.832 396.105 874.821 407.008C878.286 407.019 884.5 406.859 887.736 407.292C882.525 408.001 876.839 406.928 870.965 407.889L872.233 407.309C874.56 404.044 872.528 388.749 872.696 383.892C872.973 375.864 873.204 367.562 873.404 359.517Z"/><path d="M946.547 354.263C961.397 352.669 975.624 356.987 981.877 371.794C985.043 379.29 984.875 385.848 984.934 393.769L936.983 393.803C940.27 411.055 957.768 417.327 967.374 402.134L976.067 403.12L984.6 403.454C981.516 413.906 974.835 421.089 963.952 423.631C954.864 425.694 941.324 425.696 933.538 419.9C908.497 401.26 914.442 360.532 946.547 354.263Z"/><path fill="#F7F7F7" d="M948.784 368.308C959.822 366.825 964.445 371.324 966.878 381.632L956.538 381.629L937.196 381.68C937.665 380.016 938.256 378.39 938.965 376.813C941.239 371.7 943.847 370.246 948.784 368.308Z"/><path fill="#C3C2C4" d="M885.172 369.177C887.712 368.155 890.604 369.332 891.709 371.837C892.814 374.342 891.732 377.272 889.265 378.458C887.595 379.261 885.621 379.09 884.114 378.012C882.607 376.934 881.808 375.121 882.028 373.281C882.248 371.442 883.454 369.869 885.172 369.177Z"/><path fill="#A0A0A2" d="M976.719 326.844C980.416 326.385 1006.33 326.176 1009.32 327.007L1009.87 328.284C1006.15 328.808 980.686 328.892 977.388 328.166L976.719 326.844Z"/><path fill="#A0A0A2" d="M976.943 318.794C986.305 318.309 998.979 318.251 1008.39 318.824C1009.11 318.868 1009.27 319.451 1009.83 320.222C1006.15 320.687 980.548 320.902 977.51 320.026L976.943 318.794Z"/><path fill="#A0A0A2" d="M976.898 303.334C981.492 302.844 1004.66 302.848 1008.83 303.552L1009.58 304.729C1004.64 305.234 982.37 305.275 977.834 304.64L976.898 303.334Z"/><path fill="#A0A0A2" d="M976.126 311.435C979.873 310.524 1008 310.244 1010.37 312.119C1009.76 312.259 1009.16 312.375 1008.55 312.466C1005.08 312.997 978.645 313.291 976.126 311.435Z"/><path fill="#A0A0A2" d="M873.439 286.037L975.633 285.971C989.312 285.984 1014.74 286.788 1027.56 285.801C1027.27 308.917 1027.35 332.403 1027.38 355.542L1026.09 356.205L1025.92 287.557C1011.32 287.113 995.749 287.56 981.064 287.479C945.693 287.284 910.161 287.832 874.804 287.315L874.895 323.311C874.899 329.885 875.091 341.083 874.141 347.318C872.99 341.771 873.36 330.587 873.37 324.521L873.439 286.037Z"/><path fill="#A0A0A2" d="M1038.01 354.399C1037.31 349.906 1037.51 338.705 1037.51 333.862L1037.53 296.905L1037.51 170.901C1037.51 165.192 1036.98 121.313 1038.23 118.426C1039.35 123.059 1039.02 137.391 1039.01 142.794L1038.88 183.627L1038.8 354.162L1038.01 354.399Z"/><path fill="#A0A0A2" d="M873.424 129.076C923.768 128.086 976.777 129.183 1027.45 128.963L1027.52 276.439C977.589 275.338 923.499 276.233 873.351 276.328L873.424 129.076Z"/><path fill="#F4F3F3" d="M874.768 130.4L1026.07 130.408C1026.52 167.617 1025.85 204.962 1026.13 242.181C1026.2 253.036 1026.25 264.045 1025.92 274.887L874.783 274.87L874.768 130.4Z"/><path fill="#A0A0A2" d="M976.689 250.959C977.178 250.873 978.161 250.707 978.757 250.702C988.671 250.625 998.896 250.126 1008.78 250.815C1009.34 251.32 1009.8 251.737 1010.17 252.066C1009.98 252.099 1009.05 252.265 1008.9 252.269C998.834 252.542 988.369 252.944 978.329 252.269C977.659 251.734 977.112 251.297 976.689 250.959Z"/><path fill="#A0A0A2" d="M976.926 235.457C980.701 235 1006.2 234.87 1009.33 235.573L1009.71 236.883C1002.41 237.003 984.354 237.582 977.865 236.754L976.926 235.457Z"/><path fill="#A0A0A2" d="M993.655 258.338C996.66 258.265 1005.57 257.505 1007.31 259.519L1007.62 258.711L1008.15 259.409L1008.22 258.834L1008.74 259.009L1008.46 259.468L1008.21 258.972L1007.57 259.664L1007.47 258.867L1007.11 258.833L1006.58 259.815C1003.32 260.337 997.525 260.113 994.039 260.086C989.524 260.143 982.173 260.402 977.974 259.108C983.186 258.439 988.403 258.443 993.655 258.338Z"/><path fill="#A0A0A2" d="M992.09 227.429C997.832 227.34 1002.37 227.088 1008.03 228.141L1008.32 228.64C1005.14 229.323 1001.21 229.144 997.902 229.135C993.66 229.185 982.45 229.367 978.404 228.339C980.511 227.459 989.383 227.489 992.09 227.429Z"/><path fill="#A0A0A2" d="M976.403 243.576C976.879 243.484 977.357 243.407 977.838 243.346C981.458 242.88 1007.96 242.38 1010.36 244.252C1006.23 244.915 979.908 245.213 976.403 243.576Z"/><path fill="#A0A0A2" d="M884.346 189.119C894.431 187.373 893.634 196.645 887.447 198.695C882.488 198.667 880.418 193.598 884.162 189.718C883.521 192.123 883.093 193.085 883.722 195.557C885.377 197.372 884.521 196.933 886.92 197.227C889.03 196.45 889.226 196.265 890.612 194.487C890.986 192.178 891.131 193.118 889.957 190.953C887.887 189.322 886.962 189.403 884.346 189.119Z"/><path fill="#F4F3F3" d="M700.436 287.42L851.266 287.351C851.063 298.685 852.101 320.876 850.92 331.204C855.653 331.298 865.815 331.625 870.429 331.02C870.571 347.938 870.566 364.857 870.411 381.774C870.395 387.408 870.05 403.054 870.965 407.889C876.839 406.928 882.525 408.001 887.736 407.292L910.632 407.36C910.626 412.796 910.567 418.312 910.619 423.739C900.105 423.731 885.02 423.313 874.886 423.949L873.387 423.861L863.945 423.713C860.324 423.415 854.9 423.626 851.146 423.659C851.747 432.528 851.231 449.187 851.272 458.589C801.915 457.605 750.005 458.351 700.436 458.467L700.436 287.42Z"/><path d="M850.92 331.204C855.653 331.298 865.815 331.625 870.429 331.02C870.571 347.938 870.566 364.857 870.411 381.774C870.395 387.408 870.05 403.054 870.965 407.889C876.839 406.928 882.525 408.001 887.736 407.292L910.632 407.36C910.626 412.796 910.567 418.312 910.619 423.739C900.105 423.731 885.02 423.313 874.886 423.949L873.387 423.861L863.945 423.713C860.324 423.415 854.9 423.626 851.146 423.659C850.346 420.495 850.386 390.699 850.559 386.148C851.195 369.469 849.67 347.384 850.92 331.204Z"/><path fill="#24B1C1" d="M821.805 355.277L842.309 355.33C836.503 371.254 831.014 388.095 824.902 403.763C815.057 430.051 813.673 458.465 776.921 448.367C777.841 443.413 779.227 438.763 780.586 433.916C782.273 434.22 783.994 434.324 785.651 434.591C791.773 435.844 797.664 430.566 795.771 424.316C788.73 401.068 778.765 378.401 771.258 355.307L791.795 355.323C796.956 371.739 801.713 388.323 806.911 404.706C812.016 389.959 817.286 370.47 821.805 355.277Z"/><path fill="#24B1C1" d="M729.208 354.258C747.536 352.797 759.494 355.649 765.62 374.353L747.588 374.876C744.171 369.838 741.09 367.354 734.696 367.502C730.172 367.607 725.218 369.07 725.443 374.382C731.226 386.015 762.619 378.447 765.969 396.868C769.196 414.62 758.737 421.439 743.181 424.648C724.549 425.255 709.395 424.381 704.697 403.204C710.684 403.048 716.985 402.644 722.994 402.356C725.578 407.966 727.734 409.91 734.071 410.664C738.823 411.23 746.502 409.854 746.835 403.949C743.44 391.038 709.727 400.332 706.953 379.308C704.771 362.775 714.869 356.963 729.208 354.258Z"/><path fill="#A0A0A2" d="M802.173 303.309C805.98 302.867 831.485 302.844 834.455 303.517L834.886 304.727C829.758 305.012 807.301 305.425 803.1 304.684L802.173 303.309Z"/><path fill="#A0A0A2" d="M810.128 318.801C816.005 318.677 829.509 318.182 834.585 319.558L833.885 320.103C834.278 320.244 828.903 320.523 828.281 320.53C823.354 320.555 807.362 320.86 803.568 319.621C805.053 318.647 808.161 318.857 810.128 318.801Z"/><path fill="#A0A0A2" d="M809.187 326.875C813.004 326.819 832.961 326.204 835.008 327.409C833.158 328.825 831.979 328.589 829.687 328.559C820.71 328.535 811.867 328.566 802.897 328.131L802.922 327.657C804.845 326.776 807.014 326.935 809.187 326.875Z"/><path fill="#A0A0A2" d="M802.08 311.41C806.52 310.701 832.981 310.332 835.279 312.194C831.286 312.862 804.444 313.316 802.08 311.41Z"/><path fill="#A0A0A2" d="M862.702 118.771L864.038 118.858L864.093 264.647L864.066 307.337C864.057 312.945 863.741 325.165 864.369 330.176C866.771 330.888 867.945 330.877 870.429 331.02C865.815 331.625 855.653 331.298 850.92 331.204C852.101 320.876 851.063 298.685 851.266 287.351L700.436 287.42L700.436 458.467C750.005 458.351 801.915 457.605 851.272 458.589C851.231 449.187 851.747 432.528 851.146 423.659C854.9 423.626 860.324 423.415 863.945 423.713C864.54 441.218 864.102 461.153 864.103 478.825L864.096 580.657L864.089 627.032C864.087 631.356 864.346 645.951 863.596 649.394C862.037 647.612 862.624 624.941 862.622 620.531L862.63 569.938L862.677 424.135L852.317 424.142C852.977 435.268 852.633 448.445 852.56 459.749C801.34 460.573 749.944 459.309 698.857 460.059C699.311 402.063 699.296 344.065 698.813 286.07L852.572 286.002C852.655 300.969 852.609 315.936 852.433 330.902L862.699 330.827C861.749 261.112 862.609 188.642 862.702 118.771Z"/><path fill="#A0A0A2" d="M1025.25 370.285L1027.53 369.985L1027.49 460.267C976.678 459.962 924.14 459.691 873.371 460.346C873.527 448.185 873.532 436.022 873.387 423.861L874.886 423.949L875.032 458.389L1025.9 458.412C1025.95 446.913 1027.29 376.635 1025.25 370.285Z"/><path fill="#A0A0A2" d="M1037.48 372.477C1041.07 376.951 1041.79 378.903 1041.52 384.754C1040.5 382.106 1040.06 382.157 1039.61 379.129L1039.19 378.96C1038.7 386.211 1039.37 394.168 1039.29 401.552L1038.96 468.206L1038.82 650.34L1037.81 650.357C1036.02 644.032 1037.52 596.893 1037.52 587.577L1037.48 372.477Z"/><path fill="#A0A0A2" d="M688.269 361.646C687.745 356.961 688.092 341.411 688.088 335.903L688.066 281.929C688.056 228.986 688.009 175.965 688.156 123.018C688.162 120.957 688.019 120.188 689.046 118.45C690.203 121.326 689.573 164.951 689.571 171.037L689.596 296.727C689.592 317.705 688.874 343.366 689.751 363.989C689.388 363.195 688.772 362.386 688.269 361.646Z"/><path fill="#A0A0A2" d="M873.429 469.622L1027.46 469.611C1027.38 526.317 1026.79 584.348 1027.55 640.957C977.009 640.297 924.056 640.57 873.461 640.974L873.429 469.622Z"/><path fill="#F4F3F3" d="M874.804 471.049L1025.93 471.022C1026.05 526.726 1026.64 583.955 1025.92 639.579L874.784 639.597L874.804 471.049Z"/><path fill="#A0A0A2" d="M884.533 552.008C886.08 551.121 887.984 551.137 889.515 552.05C891.046 552.962 891.966 554.63 891.922 556.412C891.878 558.194 890.876 559.814 889.302 560.649C886.922 561.912 883.969 561.033 882.667 558.674C881.366 556.315 882.196 553.348 884.533 552.008Z"/><path fill="#F4F3F3" d="M886.255 552.126L886.576 552.975C885.99 555.004 886.185 555.484 886.627 557.577C887.471 555.339 887.287 554.719 888.943 553.388L891.371 554.831C890.655 556.957 890.564 557.359 889.115 559.049C886.781 560.044 887.786 559.942 885.322 559.463C883.492 557.426 883.975 558.415 883.495 555.717C883.964 553.689 884.564 553.421 886.255 552.126Z"/><path fill="#A0A0A2" d="M976.873 487.433C981.237 487.095 1005.73 486.874 1009.35 487.575L1010.18 488.875C1006.42 489.338 980.32 489.448 977.399 488.722L976.873 487.433Z"/><path fill="#A0A0A2" d="M976.64 603.681C980.371 603.22 1006.15 602.931 1009.17 603.861L1009.51 605.078C1005.35 605.484 981.177 605.492 977.545 604.925L976.64 603.681Z"/><path fill="#A0A0A2" d="M976.319 495.536C976.646 495.481 977.883 495.272 978.171 495.297C983.861 495.795 1006.67 493.623 1010.12 496.576C1009.78 496.65 1008.56 496.9 1008.31 496.884C1002.36 496.508 980.046 498.637 976.319 495.536Z"/><path fill="#A0A0A2" d="M979.904 511.008C986.975 510.859 1002.28 510.398 1008.78 511.389L1009.02 512.241L1007.31 512.589C1001 512.633 983.242 512.974 977.761 512.002L977.831 511.171L979.904 511.008Z"/><path fill="#A0A0A2" d="M976.16 619.839C980.191 618.905 1007.42 618.496 1010.19 620.296C1006.04 621.25 979.56 621.716 976.16 619.839Z"/><path fill="#A0A0A2" d="M976.14 611.785C979.872 610.912 1007.85 610.452 1010.41 612.463C1006.72 613.104 978.996 613.746 976.14 611.785Z"/><path fill="#A0A0A2" d="M1003.73 595.65C1006.34 595.532 1006.79 595.469 1009.29 596.4L1009.24 596.944C1000.66 597.46 991.423 597.306 982.785 597.323C980.197 597.431 979.835 597.434 977.302 596.702L977.538 596.221C985.582 595.542 995.532 595.714 1003.73 595.65Z"/><path fill="#A0A0A2" d="M976.299 503.598C979.799 502.853 1007.1 502.644 1010.08 503.861C1006.85 505.19 979.21 505.279 976.299 503.598Z"/><path fill="#A0A0A2" d="M698.776 469.558C749.558 470.153 801.858 469.623 852.684 469.5L852.665 640.995L698.79 640.968C699.005 633.941 698.96 626.711 698.926 619.67C698.688 569.659 699.373 519.56 698.776 469.558Z"/><path fill="#F7F7F7" d="M700.608 471.081L851.119 471.039L851.175 639.54C801.872 638.555 750.18 639.303 700.681 639.313C699.793 584.233 700.381 526.263 700.608 471.081Z"/><path fill="#C3C2C4" d="M711.727 551.287C714.4 550.634 717.11 552.215 717.856 554.864C718.602 557.513 717.116 560.277 714.495 561.115C712.716 561.684 710.769 561.236 709.416 559.948C708.064 558.66 707.522 556.737 708.004 554.932C708.485 553.128 709.913 551.73 711.727 551.287Z"/><path fill="#A0A0A2" d="M831.517 602.347C833.782 602.484 832.922 602.195 834.802 603.413L834.388 604.24C829.335 604.96 811.427 604.6 805.41 604.595C802.824 604.455 803.662 604.827 801.87 603.478C803.938 602.002 827.223 602.428 831.517 602.347Z"/><path fill="#A0A0A2" d="M801.491 618.494C801.903 618.446 802.314 618.399 802.725 618.352C812.93 618.209 823.56 617.676 833.712 618.492C834.375 619.046 834.918 619.499 835.341 619.852C830.398 620.663 804.324 621.286 801.491 618.494Z"/><path fill="#A0A0A2" d="M801.655 610.454C811.807 609.767 823.528 609.993 833.698 610.548C833.698 610.548 834.959 611.67 835.088 611.784C829.202 612.943 814.314 612.182 807.865 612.313C804.776 612.375 803.49 612.406 801.655 610.454Z"/><path fill="#A0A0A2" d="M801.628 494.863C806.048 494.201 832.772 493.703 835.333 495.774C833.736 496.377 831.176 496.687 829.512 496.544C823.73 496.048 805.216 498.287 801.628 494.863Z"/><path fill="#A0A0A2" d="M802.351 595C807.915 594.708 829.252 594.249 833.975 595.119L834.849 596.45C830.126 596.799 806.542 596.969 802.692 596.31L802.351 595Z"/><path fill="#A0A0A2" d="M802.705 510.323C808.795 510.262 831.953 509.229 835.24 511.655C831.301 512.143 805.85 512.437 802.728 511.572L802.705 510.323Z"/><path fill="#A0A0A2" d="M801.43 502.93C805.377 502.073 832.339 501.677 835.682 503.616C831.286 504.569 804.354 504.965 801.43 502.93Z"/><path fill="#A0A0A2" d="M801.568 487.48C805.57 486.717 832.314 486.123 835.376 488.142C831.265 488.771 804.766 489.361 801.568 487.48Z"/><path fill="#A0A0A2" d="M698.746 128.946L852.585 128.981L852.612 276.288L698.802 276.315L698.746 128.946Z"/><path fill="#F7F7F7" d="M700.265 130.442L851.148 130.411C851.335 134.617 851.254 139.16 851.22 143.398C850.866 187.237 851.778 231.228 851.123 275.052L700.203 274.974C701.032 227.507 700.306 177.992 700.265 130.442Z"/><path fill="#C3C2C4" d="M710.067 189.215C711.722 188.258 713.773 188.305 715.384 189.336C716.994 190.368 717.894 192.211 717.717 194.116C717.541 196.02 716.316 197.666 714.544 198.383C712.054 199.391 709.209 198.3 708.031 195.887C706.852 193.473 707.741 190.559 710.067 189.215Z"/><path fill="#A0A0A2" d="M802.295 250.919C802.666 250.895 803.038 250.872 803.409 250.848C813.613 251.11 824.232 250.193 834.341 250.997C834.913 251.534 835.388 251.979 835.766 252.334C832.412 253.043 805.658 253.082 802.716 252.236L802.295 250.919Z"/><path fill="#A0A0A2" d="M802.359 258.985C806.228 258.495 831.506 258.309 834.595 259.166L834.906 260.372C829.382 260.626 807.873 260.99 803.247 260.232L802.359 258.985Z"/><path fill="#A0A0A2" d="M813.844 235.5C817.505 235.465 831.807 235.112 834.053 236.601C831.963 237.488 828.944 237.298 826.574 237.324C822.741 237.425 806.024 237.883 803.589 236.225C807.125 235.369 810.233 235.512 813.844 235.5Z"/><path fill="#A0A0A2" d="M802.269 243.544C806.009 242.968 831.281 242.88 834.65 243.656L835.189 244.941C825.985 245.021 816.727 245.113 807.525 244.909C805.008 244.854 803.722 245.091 802.269 243.544Z"/><path fill="#A0A0A2" d="M802.226 228.095C808.566 227.028 823.461 228.038 830.52 227.675C832.85 227.555 834.06 227.666 835.469 229.116C834.755 229.19 834.039 229.237 833.322 229.257C825.824 229.413 811.223 229.481 803.232 229.066C802.897 228.742 802.562 228.419 802.226 228.095Z"/><path fill="#F4F3F3" d="M163.813 118.455L303.577 118.651C315.082 118.724 327.027 118.32 338.345 118.519L339.823 118.814C339.792 161.588 340.422 206.183 339.783 248.843L338.55 249.214L328.44 252.456L326.937 252.892C322.071 254.926 317.241 257.043 312.448 259.243L310.419 260.266C307.413 261.922 287.442 275.257 286.666 275.342L285.707 276.441L275.068 286.181L273.804 287.465C229.831 338.074 221.506 400.474 256.429 458.886L257.055 460.118C259.358 463.362 261.762 466.642 263.87 470.007L264.928 471.351C269.378 476.397 273.744 481.229 278.73 485.763C279.53 486.491 279.35 488.519 279.465 488.567C283.789 490.368 286.602 492.62 289.979 495.797L291.891 497.115L301.03 503.164L303.068 504.552C311.585 509.235 317.665 512.431 326.86 515.938L328.16 516.469C331.331 517.387 335.324 518.422 338.378 519.488L339.51 519.781C339.763 545.506 339.813 571.233 339.66 596.959C339.63 614.374 339.915 633.055 339.513 650.349L338.346 650.442L163.764 650.454L163.813 118.455Z"/><path fill="#F7F7F7" d="M176.116 471.356L264.928 471.351C269.378 476.397 273.744 481.229 278.73 485.763C279.53 486.491 279.35 488.519 279.465 488.567C283.789 490.368 286.602 492.62 289.979 495.797L291.891 497.115L301.03 503.164L303.068 504.552C311.585 509.235 317.665 512.431 326.86 515.938L326.769 639.493C278.086 638.212 225.07 639.129 176.123 639.33L176.116 471.356Z"/><path fill="#A0A0A2" d="M301.03 503.164L303.068 504.552C295.297 504.615 285.998 504.92 278.349 504.491L278.693 503.912C282.387 502.663 295.923 503.331 301.03 503.164Z"/><path fill="#A0A0A2" d="M291.891 497.115C286.625 497.273 283.479 497.675 278.446 495.976C283.476 495.112 285.015 495.318 289.979 495.797L291.891 497.115Z"/><path fill="#C3C2C4" d="M186.954 551.916C189.587 551 192.469 552.357 193.44 554.971C194.412 557.584 193.115 560.494 190.523 561.52C188.797 562.203 186.837 561.899 185.398 560.726C183.96 559.552 183.269 557.693 183.592 555.865C183.915 554.037 185.201 552.526 186.954 551.916Z"/><path fill="#A0A0A2" d="M277.353 603.705C277.797 603.643 278.77 603.491 279.359 603.489C289.351 603.46 299.709 602.919 309.648 603.745C310.258 604.28 310.76 604.722 311.156 605.069C310.727 605.131 309.766 605.288 309.187 605.293C299.217 605.378 288.833 606.015 278.923 605.134C278.289 604.556 277.765 604.08 277.353 603.705Z"/><path fill="#A0A0A2" d="M277.258 611.698C280.747 611.026 306.996 611.031 310.14 611.831L310.896 613.29C301.098 613.282 291.119 613.39 281.315 613.346C278.699 613.335 278.594 613.193 277.258 611.698Z"/><path fill="#A0A0A2" d="M277.558 619.807C280.745 619.279 307.028 619.185 309.977 619.818L310.175 620.996C300.825 621.295 291.469 621.349 282.116 621.156C279.734 621.088 278.931 621.283 277.558 619.807Z"/><path fill="#A0A0A2" d="M277.078 511.66C280.519 510.78 308.18 510.476 311.342 511.921C308.2 513.178 279.696 513.428 277.078 511.66Z"/><path fill="#A0A0A2" d="M277.279 596.329C281.172 595.682 307.972 595.202 310.949 597.007C307.171 597.76 280.576 598.144 277.279 596.329Z"/><path fill="#F7F7F7" d="M175.962 130.426L326.834 130.426C327.179 158.507 326.618 186.926 326.854 215.034C326.961 227.706 326.418 240.183 326.937 252.892C322.071 254.926 317.241 257.043 312.448 259.243L310.419 260.266C307.413 261.922 287.442 275.257 286.666 275.342C281.879 274.452 257.423 274.847 250.897 274.899C226.066 275.097 200.642 274.499 175.877 275.078C176.668 227.71 176.148 177.9 175.962 130.426Z"/><path fill="#A0A0A2" d="M310.419 260.266C301.033 260.449 287.498 261.073 278.474 260.066L279.2 259.497C284.322 258.385 307.544 258.192 312.448 259.243L310.419 260.266Z"/><path fill="#C3C2C4" d="M186.385 189.005C188.166 188.144 190.282 188.374 191.836 189.599C193.39 190.823 194.11 192.827 193.689 194.761C193.268 196.694 191.781 198.218 189.859 198.686C187.289 199.311 184.662 197.897 183.769 195.408C182.875 192.918 184.004 190.156 186.385 189.005Z"/><path fill="#A0A0A2" d="M277.362 243.568C277.713 243.51 279.055 243.285 279.363 243.314C284.868 243.82 307.236 241.63 310.721 244.708C310.441 244.74 310.162 244.772 309.883 244.803C299.66 244.957 289.091 245.549 278.907 244.837C278.28 244.322 277.765 243.899 277.362 243.568Z"/><path fill="#A0A0A2" d="M278.496 250.925C283.101 250.887 306.843 250.405 309.946 251.524L310.063 252.576C305.494 252.65 281.524 253.338 278.421 252.195L278.496 250.925Z"/><path fill="#A0A0A2" d="M277.346 236.181C277.85 236.059 278.359 235.957 278.872 235.876C282.229 235.334 308.42 234.853 311.213 236.866C307.604 237.593 280.263 238.047 277.346 236.181Z"/><path fill="#A0A0A2" d="M277.311 228.119C281.352 227.431 307.937 226.907 311.152 228.794C307.062 229.586 280.396 230.008 277.311 228.119Z"/><path fill="#F4F3F3" d="M176.032 287.389L273.804 287.465C229.831 338.074 221.506 400.474 256.429 458.886C231.237 459.62 201.586 458.863 176.032 458.885L176.032 287.389Z"/><path fill="#A0A0A2" d="M189.756 369.728C190.741 369.662 191.28 370.054 192.172 370.496C193.547 372.311 193.918 372.646 194.086 374.883C192.23 378.689 189.561 379.106 185.589 377.863C182.19 374.559 183.953 372.192 186.729 369.193L187.682 369.713C185.782 371.794 185.279 372.913 185.023 375.673C186.595 378.293 189.496 378.346 191.954 376.927C193.105 373.927 191.515 371.881 189.756 369.728Z"/><path fill="#A0A0A2" d="M263.87 470.007L264.928 471.351L176.116 471.356L176.123 639.33C225.07 639.129 278.086 638.212 326.769 639.493L326.86 515.938L328.16 516.469L328.538 641.015L174.595 641.011C175.48 584.748 174.634 526.205 174.627 469.755C184.032 470.251 196.476 469.897 206.073 469.877C225.339 469.799 244.605 469.842 263.87 470.007Z"/><path fill="#A0A0A2" d="M174.519 128.987L328.158 128.943C327.803 157.507 328.397 186.473 328.156 215.082C328.115 220.034 327.738 249.427 328.44 252.456L326.937 252.892C326.418 240.183 326.961 227.706 326.854 215.034C326.618 186.926 327.179 158.507 326.834 130.426L175.962 130.426C176.148 177.9 176.668 227.71 175.877 275.078C200.642 274.499 226.066 275.097 250.897 274.899C257.423 274.847 281.879 274.452 286.666 275.342L285.707 276.441C277.631 275.717 257.593 276.269 248.859 276.272L174.548 276.316L174.519 128.987Z"/><path fill="#A0A0A2" d="M174.661 286.185L275.068 286.181L273.804 287.465L176.032 287.389L176.032 458.885C201.586 458.863 231.237 459.62 256.429 458.886L257.055 460.118L174.671 460.224L174.661 286.185Z"/><path fill="#A0A0A2" d="M338.378 519.488L339.51 519.781C339.763 545.506 339.813 571.233 339.66 596.959C339.63 614.374 339.915 633.055 339.513 650.349L338.346 650.442C337.545 645.736 338.06 613.244 338.121 607.18C338.409 578.152 337.612 548.422 338.378 519.488Z"/><path fill="#A0A0A2" d="M338.345 118.519L339.823 118.814C339.792 161.588 340.422 206.183 339.783 248.843L338.55 249.214C337.661 237.838 338.256 216.713 338.245 204.579L338.345 118.519Z"/><path fill="#24B1C1" d="M350.567 246.622C396.124 240.658 424.83 248.201 462.229 274.846L463.783 276.197C467.411 279.507 471.878 283.366 475.313 286.766L475.98 287.483C487.661 300.331 494.247 309.251 501.76 324.706L503.011 327.2C507.933 340.224 510.241 347.123 512.834 361.016C512.775 364.082 513.64 366.208 514.562 369.14C514.655 379.505 514.879 390.158 514.547 400.49C514.214 401.952 512.76 407.799 512.834 408.923C510.239 420.328 506.832 430.717 503.187 441.782C502.856 442.787 503.062 445.701 503.16 446.901C503.91 450.896 502.208 451.407 503.259 455.892C500.442 458.186 499.801 458.703 496.05 458.318C495.287 458.237 494.525 458.138 493.767 458.021L492.499 459.749C490.371 462.93 487.938 466.782 485.583 469.724L484.973 470.987C480.109 475.994 474.625 482.388 469.595 486.948L467.957 488.601L460.394 495.125L458.69 496.519C424.246 519.821 392.576 529.232 350.703 522.233L349.366 521.843L339.51 519.781L338.378 519.488C335.324 518.422 331.331 517.387 328.16 516.469L326.86 515.938C317.665 512.431 311.585 509.235 303.068 504.552L301.03 503.164L291.891 497.115L289.979 495.797C286.602 492.62 283.789 490.368 279.465 488.567C279.35 488.519 279.53 486.491 278.73 485.763C273.744 481.229 269.378 476.397 264.928 471.351L263.87 470.007C261.762 466.642 259.358 463.362 257.055 460.118L256.429 458.886C221.506 400.474 229.831 338.074 273.804 287.465L275.068 286.181L285.707 276.441L286.666 275.342C287.442 275.257 307.413 261.922 310.419 260.266L312.448 259.243C317.241 257.043 322.071 254.926 326.937 252.892L328.44 252.456L338.55 249.214L339.783 248.843C342.875 248.034 346.279 247.464 349.438 246.868L350.567 246.622Z"/><path fill="#F7F7F7" d="M493.767 458.021C496.275 454.144 498.967 449.277 501.418 445.22L502.109 445.233L502.227 449.063L503.16 446.901C503.91 450.896 502.208 451.407 503.259 455.892C500.442 458.186 499.801 458.703 496.05 458.318C495.287 458.237 494.525 458.138 493.767 458.021Z"/><path d="M412.974 309.01C415.092 309.782 416.759 314.99 417.66 317.099C438.832 366.653 435.174 410.731 414.374 459.148C411.223 457.966 407.077 455.841 403.952 454.352C400.99 453.084 397.854 451.358 394.973 449.857C416.345 404.963 415.137 363.76 394.574 318.793L412.974 309.01Z"/><path d="M368.864 329.847L369.906 330.009C372.826 332.882 376.949 345.306 378.263 349.43C387.53 379.516 384.615 412.038 370.145 439.996L360.375 434.731L351.243 429.847C365.284 397.127 366.124 372.48 350.663 339.74C354.73 336.979 364.179 332.322 368.864 329.847Z"/><path d="M326.291 350.031C327.789 351.187 330.746 358.482 331.32 360.671C336.812 381.597 335.769 398.81 326.33 417.734L314.709 412.564L307.187 408.97C315.845 390.638 315.464 377.539 307.274 359.214C313.651 356.234 319.991 353.173 326.291 350.031Z"/><path fill="#F7F7F7" d="M525.988 287.541L676.552 287.462C676.564 296.617 677.489 350.691 676.038 355.225L677.933 355.599C681.434 357.54 684.946 359.412 688.269 361.646C688.772 362.386 689.388 363.195 689.751 363.989C694.226 375.196 694.843 410.658 693.258 423.206C691.939 424.2 691.217 423.958 689.447 423.898L688.261 423.917C685.102 423.773 681.265 423.883 678.05 423.89L676.268 423.481C677.074 429.835 676.553 450.853 676.516 458.332L526.094 458.2L525.988 287.541Z"/><path fill="#24B1C1" d="M633.267 375.065C640.537 354.839 656.517 351.28 676.038 355.225L677.933 355.599C681.434 357.54 684.946 359.412 688.269 361.646C688.772 362.386 689.388 363.195 689.751 363.989C694.226 375.196 694.843 410.658 693.258 423.206C691.939 424.2 691.217 423.958 689.447 423.898L688.261 423.917C685.102 423.773 681.265 423.883 678.05 423.89L676.268 423.481L675.885 423.266C674.857 421.692 675.169 416.833 675.165 414.637C670.796 419.625 665.971 423.874 659.326 424.487C619.553 428.158 621.915 382.09 660.375 382.591C663.158 382.627 677.179 379.511 673.974 374.121C668.465 364.858 657.271 366.003 651.364 375.512C645.33 375.449 639.297 375.301 633.267 375.065Z"/><path fill="#F7F7F7" d="M673.179 392.585C673.964 395.061 673.362 400.484 673.161 403.251C667.389 411.523 662.542 412.057 653.123 410.156C639.997 397.03 665.88 394.125 673.179 392.585Z"/><path fill="#24B1C1" d="M557.528 331.224L620.411 331.142L620.593 347.491L576.981 347.491L576.93 369.215C590.196 368.85 603.937 369.007 617.243 368.997L617.33 385.555L578.432 385.595L577.439 386.122C576.757 389.867 577.058 402.901 577.07 407.368L620.74 407.416L620.807 423.826L557.544 423.803L557.528 331.224Z"/><path fill="#C3C2C4" d="M535.852 369.295C538.294 368.078 541.26 369.039 542.524 371.457C543.788 373.874 542.886 376.859 540.495 378.171C538.905 379.043 536.968 378.988 535.43 378.027C533.893 377.066 532.994 375.349 533.082 373.537C533.169 371.726 534.229 370.103 535.852 369.295Z"/><path fill="#A0A0A2" d="M628.391 326.875C632.96 326.444 656.343 326.172 660.25 326.95L661.067 328.299C657.334 328.801 631.862 328.949 628.78 328.075L628.391 326.875Z"/><path fill="#A0A0A2" d="M628.33 318.745C631.856 318.379 657.812 318.356 660.508 318.971L661.223 320.24C657.684 320.741 631.995 320.797 629.058 320.139L628.33 318.745Z"/><path fill="#A0A0A2" d="M628.404 303.314C632.561 303.129 657.096 302.776 660.414 303.517L660.97 304.746C657.276 305.126 632.025 305.335 629.123 304.666L628.404 303.314Z"/><path fill="#A0A0A2" d="M627.711 311.439C631.967 310.689 658.493 310.155 660.762 312.409C654.188 312.599 631.947 313.867 627.711 311.439Z"/><path fill="#F4F3F3" d="M484.973 470.987C490.583 471.06 496.193 471.099 501.803 471.103L501.933 639.647C452.14 639.343 400.161 640.514 350.728 639.523C350.726 600.731 351.205 560.934 350.703 522.233C392.576 529.232 424.246 519.821 458.69 496.519L460.394 495.125L467.957 488.601L469.595 486.948C474.625 482.388 480.109 475.994 484.973 470.987Z"/><path fill="#A0A0A2" d="M460.394 495.125C465.835 494.99 481.361 494.021 485.603 495.45L486.137 496.116C480.414 496.848 464.907 496.557 458.69 496.519L460.394 495.125Z"/><path fill="#A0A0A2" d="M469.595 486.948C472.761 487.075 482.586 487.199 484.973 487.719C479.161 488.714 473.829 488.569 467.957 488.601L469.595 486.948Z"/><path fill="#A0A0A2" d="M362.771 551.367C365.424 550.959 367.917 552.745 368.384 555.389C368.85 558.032 367.12 560.564 364.487 561.089C362.732 561.439 360.925 560.812 359.764 559.45C358.603 558.087 358.27 556.203 358.894 554.526C359.518 552.848 361.002 551.639 362.771 551.367Z"/><path fill="#F4F3F3" d="M361.849 552.754C363.093 552.142 364.57 552.246 365.715 553.028C366.86 553.81 367.496 555.147 367.379 556.529C367.263 557.91 366.411 559.122 365.151 559.7C363.239 560.577 360.978 559.755 360.074 557.856C359.171 555.956 359.962 553.683 361.849 552.754Z"/><path fill="#A0A0A2" d="M453.716 618.5C461.691 618.369 469.668 618.308 477.645 618.318C481.373 618.328 484.422 617.683 486.77 620.043C483.185 620.561 456.841 620.825 454.016 619.799L453.716 618.5Z"/><path fill="#A0A0A2" d="M453.475 611.053C457.077 610.511 482.759 610.249 485.954 611.137L486.625 612.507C477.897 613.111 466.153 612.451 457.243 612.539C454.696 612.564 454.681 612.439 453.475 611.053Z"/><path fill="#A0A0A2" d="M453.547 603.004C457.08 602.574 483.107 602.499 485.913 603.159L486.617 604.447C482.576 604.942 458.377 604.857 454.454 604.307L453.547 603.004Z"/><path fill="#A0A0A2" d="M453.708 502.903C457.424 502.454 482.949 502.052 485.942 502.964L486.3 504.279C480.849 504.534 459.246 504.694 454.501 504.142L453.708 502.903Z"/><path fill="#A0A0A2" d="M453.096 595.664C457.185 594.822 483.327 594.699 487.05 596.328C483.059 596.88 455.944 597.607 453.096 595.664Z"/><path fill="#A0A0A2" d="M452.997 510.987C456.911 510.206 483.41 510.024 486.894 511.664C482.88 512.239 455.968 512.869 452.997 510.987Z"/><path fill="#F4F3F3" d="M350.548 130.398L501.83 130.375C501.794 178.175 502.429 227.363 501.731 275.011C491.106 274.94 471.851 275.647 462.229 274.846C424.83 248.201 396.124 240.658 350.567 246.622L350.548 130.398Z"/><path fill="#A0A0A2" d="M361.159 189.217C363.415 187.997 366.229 188.709 367.635 190.854C369.04 192.999 368.569 195.864 366.55 197.445C365.083 198.594 363.095 198.819 361.408 198.028C359.722 197.236 358.625 195.562 358.572 193.699C358.519 191.837 359.52 190.103 361.159 189.217Z"/><path fill="#F4F3F3" d="M362.05 189.837C363.382 189.329 364.885 189.585 365.973 190.505C367.061 191.426 367.563 192.865 367.283 194.263C367.003 195.661 365.986 196.796 364.627 197.226C362.608 197.865 360.447 196.783 359.749 194.783C359.052 192.783 360.072 190.591 362.05 189.837Z"/><path fill="#A0A0A2" d="M464.176 250.948C469.113 250.814 481.022 250.289 485.198 251.798L485.166 251.976L482.641 252.374L483.691 252.371C481.839 252.781 478.068 252.661 476.023 252.663C472.454 252.689 456.863 253.088 454.703 251.675C457.824 250.865 460.954 250.983 464.176 250.948Z"/><path fill="#A0A0A2" d="M453.594 259.017C458.359 258.535 481.025 258.376 485.303 259.028L486.186 260.443C478.886 260.487 460.907 261.01 454.472 260.212L453.594 259.017Z"/><path fill="#A0A0A2" d="M452.963 243.585C453.348 243.526 453.732 243.467 454.117 243.408C459.622 243.704 483.314 241.832 486.656 244.488C482.647 245.188 455.546 245.777 452.963 243.585Z"/><path fill="#A0A0A2" d="M452.794 236.182C453.28 236.044 453.773 235.929 454.271 235.838C457.699 235.193 483.885 234.885 486.745 236.858C482.687 237.467 455.987 238.053 452.794 236.182Z"/><path fill="#A0A0A2" d="M452.915 228.119C456.917 227.373 483.253 227.057 486.758 228.793C482.837 229.468 455.923 230.027 452.915 228.119Z"/><path fill="#A0A0A2" d="M524.451 285.862C534.323 286.233 544.988 286.011 554.9 285.936C595.928 285.626 637.087 286.39 678.103 285.864C677.503 308.25 678.093 332.988 677.933 355.599L676.038 355.225C677.489 350.691 676.564 296.617 676.552 287.462L525.988 287.541L526.094 458.2L676.516 458.332C676.553 450.853 677.074 429.835 676.268 423.481L678.05 423.89C678.016 435.847 677.844 448.084 678.339 460.006L524.387 460.208C525.147 439.879 524.585 416.061 524.585 395.526L524.451 285.862Z"/><path fill="#A0A0A2" d="M349.128 129.026L503.268 128.98L503.318 276.305C491.117 276.275 475.648 275.772 463.783 276.197L462.229 274.846C471.851 275.647 491.106 274.94 501.731 275.011C502.429 227.363 501.794 178.175 501.83 130.375L350.548 130.398L350.567 246.622L349.438 246.868C348.663 207.706 349.891 167.998 349.128 129.026Z"/><path fill="#A0A0A2" d="M485.583 469.724L503.327 469.559L503.219 640.846C452.354 640.846 400.077 640.24 349.336 640.941C349.329 602.101 348.524 560.434 349.366 521.843L350.703 522.233C351.205 560.934 350.726 600.731 350.728 639.523C400.161 640.514 452.14 639.343 501.933 639.647L501.803 471.103C496.193 471.099 490.583 471.06 484.973 470.987L485.583 469.724Z"/><path fill="#F7F7F7" d="M475.98 287.483C484.611 287.549 493.242 287.558 501.873 287.51C501.866 297.671 502.397 315.191 501.76 324.706C494.247 309.251 487.661 300.331 475.98 287.483Z"/><path fill="#A0A0A2" d="M688.261 423.917L689.447 423.898C690.471 470.983 689.696 520.698 689.74 568.065L689.778 622.202C689.781 629.819 690.168 643.154 689.601 650.345L688.443 650.408C687.855 647.451 688.06 633.87 688.07 630.027L688.107 590.187L688.261 423.917Z"/><path fill="#A0A0A2" d="M512.834 361.016C513.637 354.489 513.331 344.027 513.325 337.213L513.276 298.154L513.351 166.494C513.353 159.142 512.811 124.567 514.197 119.835C515.103 127.027 514.738 141.625 514.741 149.404L514.746 202.063C514.743 257.516 515.216 313.743 514.562 369.14C513.64 366.208 512.775 364.082 512.834 361.016Z"/><path fill="#A0A0A2" d="M514.547 400.49C515.304 456.569 514.695 513.97 514.699 570.126L514.718 618.016C514.746 626.593 515.278 641.278 513.913 649.286C513.023 645.896 513.307 610.175 513.305 604.661L513.301 467.974L513.37 430.423C513.375 425.462 513.606 413.312 512.834 408.923C512.76 407.799 514.214 401.952 514.547 400.49Z"/><path fill="#A0A0A2" d="M475.313 286.766C480.277 285.661 497.081 286.034 503.24 286.066C503.253 299.022 503.636 314.433 503.011 327.2L501.76 324.706C502.397 315.191 501.866 297.671 501.873 287.51C493.242 287.558 484.611 287.549 475.98 287.483L475.313 286.766Z"/><path fill="#A0A0A2" d="M493.767 458.021C494.525 458.138 495.287 458.237 496.05 458.318C499.801 458.703 500.442 458.186 503.259 455.892L503.143 458.97C499.992 461.26 496.792 459.726 492.499 459.749L493.767 458.021Z"/><path fill="#A0A0A2" d="M524.69 469.632L678.064 469.654L678.037 640.97C627.188 640.409 575.611 640.87 524.685 640.872L524.69 469.632Z"/><path fill="#F4F3F3" d="M525.9 470.982C575.751 471.593 626.711 471.058 676.647 471.034L676.627 639.513L525.933 639.521C526.336 620.388 526.013 600.084 526.019 580.878L525.9 470.982Z"/><path fill="#C3C2C4" d="M537.163 551.271C539.917 550.702 542.608 552.48 543.166 555.236C543.725 557.992 541.937 560.677 539.179 561.225C536.436 561.77 533.768 559.993 533.213 557.252C532.658 554.51 534.424 551.836 537.163 551.271Z"/><path fill="#A0A0A2" d="M628.245 618.444C632.548 618.083 657.052 618.087 660.625 618.665L661.608 620.14C657.58 620.376 631.543 620.763 628.745 619.73L628.245 618.444Z"/><path fill="#A0A0A2" d="M628.243 603C632.014 602.552 657.531 602.435 660.645 603.102L661.309 604.42C655.368 604.84 634.671 604.89 629.225 604.25L628.243 603Z"/><path fill="#A0A0A2" d="M627.678 611.099C630.911 610.315 657.473 610.33 660.651 611.109L660.944 612.457C652.382 612.382 638.36 612.927 629.318 612.371C628.676 611.873 628.129 611.449 627.678 611.099Z"/><path fill="#A0A0A2" d="M628.149 502.901C631.581 502.379 657.897 502.074 660.643 502.95L660.878 504.171C660.283 504.217 659.688 504.246 659.092 504.256C651.469 504.421 637.378 504.522 629.226 503.935C628.867 503.59 628.508 503.246 628.149 502.901Z"/><path fill="#A0A0A2" d="M628.409 494.821C632.611 494.492 658.708 494.182 661.467 495.885C657.937 496.802 632.728 496.98 629.101 496.159L628.409 494.821Z"/><path fill="#A0A0A2" d="M627.58 510.99C632.032 510.325 658.543 509.599 661.656 511.675C657.481 512.357 631.183 512.756 627.58 510.99Z"/><path fill="#A0A0A2" d="M627.639 595.656C632.11 594.966 658.843 594.325 661.934 596.334C658.078 596.955 630.642 597.46 627.639 595.656Z"/><path fill="#A0A0A2" d="M627.803 487.479C632.141 486.762 657.972 486.442 661.557 488.147C656.907 488.715 631.478 489.309 627.803 487.479Z"/><path fill="#A0A0A2" d="M524.282 129.028L678.023 128.968L677.991 276.243L524.18 276.306L524.282 129.028Z"/><path fill="#F4F3F3" d="M525.847 130.416L676.48 130.406C676.648 136.371 676.637 142.871 676.519 148.836C675.689 190.689 677.64 233.288 676.45 275.085C658.98 274.62 640.39 274.95 622.836 274.947L525.443 274.921C525.986 233.706 525.252 192.313 525.511 151.086C525.553 144.456 525.161 136.963 525.847 130.416Z"/><path fill="#C3C2C4" d="M535.434 189.204C537.038 188.198 539.066 188.158 540.709 189.098C542.352 190.038 543.345 191.806 543.291 193.699C543.238 195.591 542.147 197.301 540.454 198.147C538.003 199.371 535.024 198.455 533.683 196.067C532.343 193.678 533.113 190.658 535.434 189.204Z"/><path fill="#A0A0A2" d="M628.282 250.927C632.056 250.554 656.662 250.566 659.97 251.035L660.911 252.496C656.043 252.567 632.106 253.176 628.697 252.272L628.282 250.927Z"/><path fill="#A0A0A2" d="M628.01 258.984C631.427 258.502 657.635 258.39 660.433 259.175L660.775 260.362C650.782 260.495 639.378 260.913 629.399 260.321C628.701 260.28 628.555 259.734 628.01 258.984Z"/><path fill="#A0A0A2" d="M648.319 235.507C652.723 235.374 655.303 235.177 659.704 235.996C657.738 237.751 644.098 237.241 640.756 237.193C636.455 237.245 634.171 237.235 629.818 236.687L630.197 236.143C636.025 235.299 642.391 235.486 648.319 235.507Z"/><path fill="#A0A0A2" d="M628.05 243.553C633.066 243.111 658.085 242.281 661.317 244.428C657.305 245.057 630.462 245.595 628.05 243.553Z"/><path fill="#A0A0A2" d="M627.652 228.126C631.915 227.362 658.004 227.15 661.751 228.791C657.789 229.376 630.674 230.03 627.652 228.126Z"/></svg>
